<?xml version="1.0" encoding="UTF-8"?>
<svg xmlns="http://www.w3.org/2000/svg" xmlns:xlink="http://www.w3.org/1999/xlink" width="512" height="512" viewBox="0 0 60 60" version="1.1"><!-- Generator: Sketch 51.3 (57544) - http://www.bohemiancoding.com/sketch --><title>024 - Desktop website build</title><desc>Created with Sketch.</desc><defs/><g id="Page-1" stroke="none" stroke-width="1" fill="none" fill-rule="evenodd"><g id="024---Desktop-website-build" fill-rule="nonzero"><path d="M39,40 L39,43 C39,44.6568542 37.6568542,46 36,46 L4,46 C2.34314575,46 1,44.6568542 1,43 L1,40 L39,40 Z" id="Shape" fill="#37474F"/><path d="M36,40 L36,43 C36,44.6568542 34.6568542,46 33,46 L4,46 C2.34314575,46 1,44.6568542 1,43 L1,40 L36,40 Z" id="Shape" fill="#607D8B"/><path d="M39,20 L39,40 L1,40 L1,20 C1,18.3431458 2.34314575,17 4,17 L36,17 C37.6568542,17 39,18.3431458 39,20 Z" id="Shape" fill="#0377BC"/><path d="M36,20 L36,40 L1,40 L1,20 C1,18.3431458 2.34314575,17 4,17 L33,17 C34.6568542,17 36,18.3431458 36,20 Z" id="Shape" fill="#02A9F4"/><rect id="Rectangle-path" fill="#37474F" x="15" y="45" width="10" height="8"/><path d="M2,6 L45,6 L45,10 L2,10 C1.44771525,10 1,9.55228475 1,9 L1,7 C1,6.44771525 1.44771525,6 2,6 Z" id="Shape" fill="#FF9801"/><path d="M59,7 L59,9 C59,9.55228475 58.5522847,10 58,10 L49,10 L49,6 L58,6 C58.5522847,6 59,6.44771525 59,7 Z" id="Shape" fill="#F57C00"/><path d="M56,7 L56,9 C56,9.55228475 55.5522847,10 55,10 L49,10 L49,6 L55,6 C55.5522847,6 56,6.44771525 56,7 Z" id="Shape" fill="#FF9801"/><path d="M54,9 L58,9 L58,13 C58,13.5522847 57.5522847,14 57,14 L55,14 C54.4477153,14 54,13.5522847 54,13 L54,9 Z" id="Shape" fill="#37474F"/><path d="M56,49 L56,57 L40,57 L40,49 C40,48.4477153 40.4477153,48 41,48 L55,48 C55.5522847,48 56,48.4477153 56,49 Z" id="Shape" fill="#283593"/><path d="M53,49 L53,57 L40,57 L40,49 C40,48.4477153 40.4477153,48 41,48 L52,48 C52.5522847,48 53,48.4477153 53,49 Z" id="Shape" fill="#3F51B5"/><path d="M29,53 L29,56 L11,56 L11,53 C11.0032948,51.8967981 11.8967981,51.0032948 13,51 L27,51 C28.1032019,51.0032948 28.9967052,51.8967981 29,53 Z" id="Shape" fill="#37474F"/><path d="M26,53 L26,56 L11,56 L11,53 C11.0032948,51.8967981 11.8967981,51.0032948 13,51 L24,51 C25.1032019,51.0032948 25.9967052,51.8967981 26,53 Z" id="Shape" fill="#607D8B"/><path d="M59,57 C58.9918328,58.1011688 58.1011688,58.9918328 57,59 L3,59 C1.89679813,58.9967052 1.0032948,58.1032019 1,57 C0.997176934,56.4694095 1.2101411,55.9604612 1.59,55.59 C1.9604612,55.2101411 2.46940947,54.9971769 3,55 L57,55 C58.1032019,55.0032948 58.9967052,55.8967981 59,57 Z" id="Shape" fill="#00695C"/><path d="M56,57 C55.9918328,58.1011688 55.1011688,58.9918328 54,59 L3,59 C1.89679813,58.9967052 1.0032948,58.1032019 1,57 C0.997176934,56.4694095 1.2101411,55.9604612 1.59,55.59 C1.9604612,55.2101411 2.46940947,54.9971769 3,55 L54,55 C55.1032019,55.0032948 55.9967052,55.8967981 56,57 Z" id="Shape" fill="#009688"/><path d="M57,15 L55,15 C53.8954305,15 53,14.1045695 53,13 L53,10 C53,9.44771525 53.4477153,9 54,9 L58,9 C58.5522847,9 59,9.44771525 59,10 L59,13 C59,14.1045695 58.1045695,15 57,15 Z M55,11 L55,13 L57,13 L57,11 L55,11 Z" id="Shape" fill="#000000"/><path d="M57,60 L3,60 C1.34314575,60 2.02906125e-16,58.6568542 0,57 C-2.02906125e-16,55.3431458 1.34314575,54 3,54 L57,54 C58.6568542,54 60,55.3431458 60,57 C60,58.6568542 58.6568542,60 57,60 Z M3,56 C2.44771525,56 2,56.4477153 2,57 C2,57.5522847 2.44771525,58 3,58 L57,58 C57.5522847,58 58,57.5522847 58,57 C58,56.4477153 57.5522847,56 57,56 L3,56 Z" id="Shape" fill="#000000"/><path d="M56,56 L40,56 C39.4477153,56 39,55.5522847 39,55 L39,50 C39,48.8954305 39.8954305,48 41,48 L55,48 C56.1045695,48 57,48.8954305 57,50 L57,55 C57,55.5522847 56.5522847,56 56,56 Z M41,54 L55,54 L55,50 L41,50 L41,54 Z" id="Shape" fill="#000000"/><path d="M53,50 L43,50 C42.4477153,50 42,49.5522847 42,49 L42,31.236 C42.000349,30.925704 42.0725699,30.6197064 42.211,30.342 L44.105,26.553 C44.2744246,26.2139484 44.620974,25.9998234 45,26 L51,26 C51.3808256,25.9979212 51.7297741,26.2123306 51.9,26.553 L53.794,30.342 C53.9324301,30.6197064 54.004651,30.925704 54.005,31.236 L54.005,49 C54.0050033,49.2660851 53.8989604,49.5211997 53.7103412,49.7088804 C53.5217221,49.8965612 53.2660817,50.0013304 53,50 Z M44,48 L52,48 L52,31.236 L50.382,28 L45.618,28 L44,31.236 L44,48 Z" id="Shape" fill="#000000"/><path d="M51,28 L45,28 C44.4477153,28 44,27.5522847 44,27 L44,5.333 C44.0004313,4.90032967 44.1407428,4.47939504 44.4,4.133 L46.4,1.467 C46.7911472,0.984673917 47.3790052,0.704536127 48,0.704536127 C48.6209948,0.704536127 49.2088528,0.984673917 49.6,1.467 L51.6,4.133 C51.8588725,4.47959623 51.9991402,4.90039953 52,5.333 L52,27 C52,27.5522847 51.5522847,28 51,28 Z M46,26 L50,26 L50,5.333 L48,2.667 L46,5.333 L46,26 Z" id="Shape" fill="#000000"/><path d="M51,18 L45,18 C44.6396568,17.9999315 44.3072172,17.8059998 44.1297986,17.4923601 C43.95238,17.1787205 43.9574232,16.7938826 44.143,16.485 L49.234,8 L45,8 C44.4477153,8 44,7.55228475 44,7 C44,6.44771525 44.4477153,6 45,6 L51,6 C51.3603432,6.00006853 51.6927828,6.19400017 51.8702014,6.50763986 C52.04762,6.82127955 52.0425768,7.20611735 51.857,7.515 L46.766,16 L51,16 C51.5522847,16 52,16.4477153 52,17 C52,17.5522847 51.5522847,18 51,18 Z" id="Shape" fill="#000000"/><path d="M51,28 L45,28 C44.6396568,27.9999315 44.3072172,27.8059998 44.1297986,27.4923601 C43.95238,27.1787205 43.9574232,26.7938826 44.143,26.485 L49.234,18 L45,18 C44.4477153,18 44,17.5522847 44,17 C44,16.4477153 44.4477153,16 45,16 L51,16 C51.3603432,16.0000685 51.6927828,16.1940002 51.8702014,16.5076399 C52.04762,16.8212795 52.0425768,17.2061174 51.857,17.515 L46.766,26 L51,26 C51.5522847,26 52,26.4477153 52,27 C52,27.5522847 51.5522847,28 51,28 Z" id="Shape" fill="#000000"/><path d="M53,42 L43,42 C42.575187,42.0001993 42.1966134,41.7319767 42.0559454,41.3311292 C41.9152775,40.9302818 42.0432209,40.4843089 42.375,40.219 L50.149,34 L43,34 C42.4477153,34 42,33.5522847 42,33 C42,32.4477153 42.4477153,32 43,32 L53,32 C53.424813,31.9998007 53.8033866,32.2680233 53.9440546,32.6688708 C54.0847225,33.0697182 53.9567791,33.5156911 53.625,33.781 L45.851,40 L53,40 C53.5522847,40 54,40.4477153 54,41 C54,41.5522847 53.5522847,42 53,42 Z" id="Shape" fill="#000000"/><path d="M53,50 L43,50 C42.575187,50.0001993 42.1966134,49.7319767 42.0559454,49.3311292 C41.9152775,48.9302818 42.0432209,48.4843089 42.375,48.219 L50.149,42 L43,42 C42.4477153,42 42,41.5522847 42,41 C42,40.4477153 42.4477153,40 43,40 L53,40 C53.424813,39.9998007 53.8033866,40.2680233 53.9440546,40.6688708 C54.0847225,41.0697182 53.9567791,41.5156911 53.625,41.781 L45.851,48 L53,48 C53.5522847,48 54,48.4477153 54,49 C54,49.5522847 53.5522847,50 53,50 Z" id="Shape" fill="#000000"/><path d="M45,11 L2,11 C0.8954305,11 1.3527075e-16,10.1045695 0,9 L0,7 C-1.3527075e-16,5.8954305 0.8954305,5 2,5 L45,5 C45.5522847,5 46,5.44771525 46,6 L46,10 C46,10.5522847 45.5522847,11 45,11 Z M2,7 L2,9 L44,9 L44,7 L2,7 Z" id="Shape" fill="#000000"/><path d="M58,11 L51,11 C50.4477153,11 50,10.5522847 50,10 L50,6 C50,5.44771525 50.4477153,5 51,5 L58,5 C59.1045695,5 60,5.8954305 60,7 L60,9 C60,10.1045695 59.1045695,11 58,11 Z M52,9 L58,9 L58,7 L52,7 L52,9 Z" id="Shape" fill="#000000"/><path d="M21,25 C20.4477153,25 20,24.5522847 20,24 L20,10 C20,9.44771525 20.4477153,9 21,9 C21.5522847,9 22,9.44771525 22,10 L22,24 C22,24.5522847 21.5522847,25 21,25 Z" id="Shape" fill="#000000"/><path d="M35,25 L7,25 C6.44771525,25 6,24.5522847 6,24 C6,23.4477153 6.44771525,23 7,23 L35,23 C35.5522847,23 36,23.4477153 36,24 C36,24.5522847 35.5522847,25 35,25 Z" id="Shape" fill="#000000"/><path d="M35,33 L7,33 C6.44771525,33 6,32.5522847 6,32 C6,31.4477153 6.44771525,31 7,31 L35,31 C35.5522847,31 36,31.4477153 36,32 C36,32.5522847 35.5522847,33 35,33 Z" id="Shape" fill="#000000"/><path d="M17,33 C16.7348052,32.9999434 16.4804927,32.8945494 16.293,32.707 L8.293,24.707 C7.91402779,24.3146211 7.91944763,23.6909152 8.30518142,23.3051814 C8.69091522,22.9194476 9.31462111,22.9140278 9.707,23.293 L17.707,31.293 C17.9929079,31.5789943 18.0784219,32.0090366 17.923678,32.3826546 C17.7689341,32.7562725 17.4043959,32.9999137 17,33 Z" id="Shape" fill="#000000"/><path d="M9,33 C8.5956041,32.9999137 8.23106595,32.7562725 8.07632202,32.3826546 C7.92157809,32.0090366 8.00709208,31.5789943 8.293,31.293 L16.293,23.293 C16.6853789,22.9140278 17.3090848,22.9194476 17.6948186,23.3051814 C18.0805524,23.6909152 18.0859722,24.3146211 17.707,24.707 L9.707,32.707 C9.51950727,32.8945494 9.26519481,32.9999434 9,33 Z" id="Shape" fill="#000000"/><path d="M25,33 C24.7348052,32.9999434 24.4804927,32.8945494 24.293,32.707 L16.293,24.707 C15.9140278,24.3146211 15.9194476,23.6909152 16.3051814,23.3051814 C16.6909152,22.9194476 17.3146211,22.9140278 17.707,23.293 L25.707,31.293 C25.9929079,31.5789943 26.0784219,32.0090366 25.923678,32.3826546 C25.7689341,32.7562725 25.4043959,32.9999137 25,33 Z" id="Shape" fill="#000000"/><path d="M17,33 C16.5956041,32.9999137 16.2310659,32.7562725 16.076322,32.3826546 C15.9215781,32.0090366 16.0070921,31.5789943 16.293,31.293 L24.293,23.293 C24.6853789,22.9140278 25.3090848,22.9194476 25.6948186,23.3051814 C26.0805524,23.6909152 26.0859722,24.3146211 25.707,24.707 L17.707,32.707 C17.5195073,32.8945494 17.2651948,32.9999434 17,33 Z" id="Shape" fill="#000000"/><path d="M33,33 C32.7348052,32.9999434 32.4804927,32.8945494 32.293,32.707 L24.293,24.707 C23.9140278,24.3146211 23.9194476,23.6909152 24.3051814,23.3051814 C24.6909152,22.9194476 25.3146211,22.9140278 25.707,23.293 L33.707,31.293 C33.9929079,31.5789943 34.0784219,32.0090366 33.923678,32.3826546 C33.7689341,32.7562725 33.4043959,32.9999137 33,33 Z" id="Shape" fill="#000000"/><path d="M25,33 C24.5956041,32.9999137 24.2310659,32.7562725 24.076322,32.3826546 C23.9215781,32.0090366 24.0070921,31.5789943 24.293,31.293 L32.293,23.293 C32.6853789,22.9140278 33.3090848,22.9194476 33.6948186,23.3051814 C34.0805524,23.6909152 34.0859722,24.3146211 33.707,24.707 L25.707,32.707 C25.5195073,32.8945494 25.2651948,32.9999434 25,33 Z" id="Shape" fill="#000000"/><path d="M29,56 L11,56 C10.4477153,56 10,55.5522847 10,55 L10,53 C10,51.3431458 11.3431458,50 13,50 L27,50 C28.6568542,50 30,51.3431458 30,53 L30,55 C30,55.2652165 29.8946432,55.5195704 29.7071068,55.7071068 C29.5195704,55.8946432 29.2652165,56 29,56 Z M12,54 L28,54 L28,53 C28,52.4477153 27.5522847,52 27,52 L13,52 C12.4477153,52 12,52.4477153 12,53 L12,54 Z" id="Shape" fill="#000000"/><path d="M25,52 L15,52 C14.4477153,52 14,51.5522847 14,51 L14,46 C14,45.4477153 14.4477153,45 15,45 L25,45 C25.5522847,45 26,45.4477153 26,46 L26,51 C26,51.5522847 25.5522847,52 25,52 Z M16,50 L24,50 L24,47 L16,47 L16,50 Z" id="Shape" fill="#000000"/><path d="M36,47 L4,47 C1.790861,47 2.705415e-16,45.209139 0,43 L0,20 C-2.705415e-16,17.790861 1.790861,16 4,16 L36,16 C38.209139,16 40,17.790861 40,20 L40,43 C40,45.209139 38.209139,47 36,47 Z M4,18 C2.8954305,18 2,18.8954305 2,20 L2,43 C2,44.1045695 2.8954305,45 4,45 L36,45 C37.1045695,45 38,44.1045695 38,43 L38,20 C38,18.8954305 37.1045695,18 36,18 L4,18 Z" id="Shape" fill="#000000"/><path d="M5,41 L1,41 C0.44771525,41 6.76353751e-17,40.5522847 0,40 C-6.76353751e-17,39.4477153 0.44771525,39 1,39 L5,39 C5.55228475,39 6,39.4477153 6,40 C6,40.5522847 5.55228475,41 5,41 Z" id="Shape" fill="#000000"/><path d="M39,41 L10,41 C9.44771525,41 9,40.5522847 9,40 C9,39.4477153 9.44771525,39 10,39 L39,39 C39.5522847,39 40,39.4477153 40,40 C40,40.5522847 39.5522847,41 39,41 Z" id="Shape" fill="#000000"/></g></g></svg>
